<svg width="28" height="21" viewBox="0 0 28 21" fill="none" xmlns="http://www.w3.org/2000/svg">
<path d="M10.1439 0.0035154C10.1439 0.0035154 6.32359 0.266015 3.82515 2.27227C3.81343 2.27695 3.79937 2.28398 3.78765 2.29102C3.35405 2.6918 3.02827 3.31289 2.62515 4.20352C2.22202 5.09414 1.79546 6.24023 1.4064 7.52226C0.630615 10.0887 0.000146636 13.2387 0.000146636 16.2035C-0.00219696 16.309 0.0235844 16.4121 0.0751466 16.5035C0.951709 18.0434 2.56421 18.9738 4.0689 19.5598C5.57358 20.1457 6.96343 20.3801 7.6689 20.4035C7.86812 20.4105 8.05796 20.3191 8.17515 20.1598L9.63765 18.1348C10.8166 18.4137 12.1994 18.6035 13.8001 18.6035C15.4009 18.6035 16.7837 18.4137 17.9626 18.1348L19.4251 20.1598C19.5423 20.3191 19.7322 20.4105 19.9314 20.4035C20.6369 20.3801 22.0267 20.1457 23.5314 19.5598C25.0361 18.9738 26.6486 18.0434 27.5251 16.5035C27.5767 16.4121 27.6025 16.309 27.6001 16.2035C27.6001 13.2387 26.9697 10.0887 26.1939 7.52226C25.8048 6.24023 25.3783 5.09414 24.9751 4.20352C24.572 3.31289 24.2462 2.6918 23.8126 2.29102C23.8009 2.28398 23.7869 2.27695 23.7751 2.27227C21.2767 0.266015 17.4564 0.0035154 17.4564 0.0035154C17.4119 -0.0011718 17.3697 -0.0011718 17.3251 0.0035154C17.1166 0.0316404 16.9408 0.167578 16.8564 0.359765C16.8564 0.359765 16.6525 0.807422 16.5189 1.44727C15.3494 1.25977 14.365 1.20352 13.8001 1.20352C13.2353 1.20352 12.2509 1.25977 11.0814 1.44727C10.9478 0.807422 10.7439 0.359765 10.7439 0.359765C10.6408 0.12539 10.3994 -0.0175782 10.1439 0.0035154ZM9.7689 1.29727C9.81343 1.41914 9.8439 1.53398 9.8814 1.67227C8.52905 1.98633 7.0478 2.49961 5.66265 3.35977C5.44468 3.45117 5.30171 3.66211 5.29468 3.89883C5.28999 4.1332 5.42358 4.35117 5.63452 4.4543C5.8478 4.55508 6.10093 4.52461 6.2814 4.37226C9.06108 2.64961 12.5978 2.40352 13.8001 2.40352C15.0025 2.40352 18.5392 2.64961 21.3189 4.37226C21.4994 4.52461 21.7525 4.55508 21.9658 4.4543C22.1767 4.35117 22.3103 4.1332 22.3056 3.89883C22.2986 3.66211 22.1556 3.45117 21.9376 3.35977C20.5525 2.49961 19.0712 1.98633 17.7189 1.67227C17.7564 1.53398 17.7869 1.41914 17.8314 1.29727C18.5158 1.38164 21.1759 1.74023 22.9876 3.17227C23.1048 3.28008 23.5126 3.88008 23.8876 4.70976C24.2626 5.53945 24.6564 6.61992 25.0314 7.85977C25.7626 10.2785 26.3533 13.2621 26.3814 15.9973C25.6994 17.1012 24.4197 17.9215 23.1001 18.4348C21.9001 18.9012 20.7798 19.1098 20.1939 19.166L19.1814 17.7973C19.697 17.6309 20.1611 17.4504 20.5689 17.2723C22.083 16.6066 22.8939 15.9035 22.8939 15.9035C23.1423 15.6809 23.1634 15.2988 22.9408 15.0504C22.7181 14.802 22.3361 14.7809 22.0876 15.0035C22.0876 15.0035 21.4595 15.5777 20.0814 16.1848C19.5751 16.4074 18.9611 16.6277 18.2626 16.8223C18.1009 16.8035 17.9392 16.8504 17.8126 16.9535C16.6947 17.2254 15.3658 17.4035 13.8001 17.4035C12.2228 17.4035 10.8916 17.209 9.7689 16.9348C9.64233 16.8504 9.48765 16.8152 9.33765 16.841C8.63687 16.6465 8.02749 16.4074 7.5189 16.1848C6.14077 15.5777 5.51265 15.0035 5.51265 15.0035C5.37671 14.877 5.18921 14.823 5.0064 14.8535C4.77437 14.8887 4.58218 15.0551 4.5189 15.2824C4.45327 15.5074 4.52827 15.7512 4.7064 15.9035C4.7064 15.9035 5.51733 16.6066 7.0314 17.2723C7.43921 17.4504 7.90327 17.6309 8.4189 17.7973L7.4064 19.166C6.82046 19.1098 5.70015 18.9012 4.50015 18.4348C3.18062 17.9215 1.90093 17.1012 1.2189 15.9973C1.24702 13.2621 1.83765 10.2785 2.5689 7.85977C2.9439 6.61992 3.33765 5.53945 3.71265 4.70976C4.08765 3.88008 4.49546 3.28008 4.61265 3.17227C6.42437 1.74023 9.08452 1.38164 9.7689 1.29727ZM9.90015 8.40351C8.36968 8.40351 7.20015 9.79336 7.20015 11.4035C7.20015 13.0137 8.36968 14.4035 9.90015 14.4035C11.4306 14.4035 12.6001 13.0137 12.6001 11.4035C12.6001 9.79336 11.4306 8.40351 9.90015 8.40351ZM17.7001 8.40351C16.1697 8.40351 15.0001 9.79336 15.0001 11.4035C15.0001 13.0137 16.1697 14.4035 17.7001 14.4035C19.2306 14.4035 20.4001 13.0137 20.4001 11.4035C20.4001 9.79336 19.2306 8.40351 17.7001 8.40351ZM9.90015 9.60351C10.69 9.60351 11.4001 10.3629 11.4001 11.4035C11.4001 12.4441 10.69 13.2035 9.90015 13.2035C9.1103 13.2035 8.40015 12.4441 8.40015 11.4035C8.40015 10.3629 9.1103 9.60351 9.90015 9.60351ZM17.7001 9.60351C18.49 9.60351 19.2001 10.3629 19.2001 11.4035C19.2001 12.4441 18.49 13.2035 17.7001 13.2035C16.9103 13.2035 16.2001 12.4441 16.2001 11.4035C16.2001 10.3629 16.9103 9.60351 17.7001 9.60351Z" fill="white"/>
</svg>
