<svg width="22" height="28" viewBox="0 0 22 28" fill="none" xmlns="http://www.w3.org/2000/svg">
<path d="M11.0032 13.387C11.6131 13.387 12.1351 13.1689 12.5692 12.7328C13.0033 12.2966 13.2203 11.7735 13.2203 11.1635C13.2203 10.5535 13.0023 10.0315 12.5661 9.59746C12.1299 9.16336 11.6068 8.94632 10.9969 8.94632C10.3869 8.94632 9.86487 9.1644 9.4308 9.60057C8.99671 10.0367 8.77966 10.5598 8.77966 11.1698C8.77966 11.7798 8.99775 12.3018 9.43392 12.7359C9.87008 13.17 10.3932 13.387 11.0032 13.387ZM11 25.7502C14.1039 22.984 16.4419 20.3587 18.0139 17.874C19.5858 15.3894 20.3718 13.2481 20.3718 11.45C20.3718 8.62341 19.4693 6.30758 17.6644 4.50248C15.8594 2.69739 13.638 1.79484 11 1.79484C8.36205 1.79484 6.1406 2.69739 4.33565 4.50248C2.53068 6.30758 1.62819 8.62341 1.62819 11.45C1.62819 13.2481 2.42734 15.3894 4.02565 17.874C5.62393 20.3587 7.94872 22.984 11 25.7502ZM11 27.8942C7.30761 24.6867 4.55464 21.7095 2.74112 18.9624C0.927623 16.2153 0.020874 13.7112 0.020874 11.45C0.020874 8.01732 1.12605 5.28206 3.33641 3.24424C5.54676 1.20643 8.10129 0.187531 11 0.187531C13.8987 0.187531 16.4533 1.20643 18.6636 3.24424C20.874 5.28206 21.9791 8.01732 21.9791 11.45C21.9791 13.7112 21.0724 16.2153 19.2589 18.9624C17.4454 21.7095 14.6924 24.6867 11 27.8942Z" fill="white"/>
</svg>
