<svg width="23" height="18" viewBox="0 0 23 18" fill="none" xmlns="http://www.w3.org/2000/svg">
<path d="M1.73075 17.5C1.2504 17.5 0.841844 17.3316 0.505094 16.9949C0.168364 16.6582 0 16.2496 0 15.7693V1.73075C0 1.2504 0.168364 0.841844 0.505094 0.505094C0.841844 0.168364 1.2504 0 1.73075 0H20.7693C21.2496 0 21.6582 0.168364 21.9949 0.505094C22.3316 0.841844 22.5 1.2504 22.5 1.73075V15.7693C22.5 16.2496 22.3316 16.6582 21.9949 16.9949C21.6582 17.3316 21.2496 17.5 20.7693 17.5H1.73075ZM11.25 8.56731L0.961531 1.69472V15.7693C0.961531 15.9936 1.03365 16.1779 1.17788 16.3221C1.3221 16.4664 1.5064 16.5385 1.73075 16.5385H20.7693C20.9936 16.5385 21.1779 16.4664 21.3221 16.3221C21.4664 16.1779 21.5385 15.9936 21.5385 15.7693V1.69472L11.25 8.56731ZM11.25 7.46153L21.101 0.961532H1.43028L11.25 7.46153ZM0.961531 1.69472V0.961532V15.7693C0.961531 15.9936 1.03365 16.1779 1.17788 16.3221C1.3221 16.4664 1.5064 16.5385 1.73075 16.5385H0.961531V1.69472Z" fill="white"/>
</svg>
