<svg width="25" height="23" viewBox="0 0 25 23" fill="none" xmlns="http://www.w3.org/2000/svg">
<path d="M23.1704 0.00164751C22.8977 0.0136134 22.6322 0.0895236 22.3927 0.185398C22.1558 0.28063 20.7915 0.862935 18.7768 1.7243C16.7621 2.58567 14.1432 3.70736 11.5471 4.81962C6.35495 7.04413 1.25275 9.2329 1.25275 9.2329L1.28993 9.21868C1.28993 9.21868 0.98199 9.32161 0.669778 9.53915C0.513671 9.64791 0.345726 9.78833 0.208215 9.99305C0.0707037 10.1978 -0.0298261 10.4879 0.00805873 10.7948C0.141128 11.8726 1.25821 12.1784 1.25821 12.1784L1.26259 12.1806L6.2479 13.8868C6.37501 14.3108 7.75997 18.9333 8.06462 19.9123C8.23288 20.4535 8.39036 20.7657 8.55462 20.9787C8.63682 21.0853 8.72297 21.1677 8.81822 21.2281C8.85606 21.252 8.89586 21.27 8.93525 21.286H8.93744C8.94227 21.2882 8.94683 21.2883 8.95165 21.2904L8.93853 21.2871C8.94768 21.2908 8.95671 21.297 8.96587 21.3002C8.98364 21.3065 8.99454 21.3063 9.01728 21.3112C9.58822 21.5105 10.0607 21.1406 10.0607 21.1406L10.0804 21.1252L13.1429 18.2848L18.1129 22.1599L18.1752 22.1884C19.0452 22.5746 19.8319 22.3591 20.2676 22.0046C20.7033 21.6501 20.8746 21.1931 20.8746 21.1931L20.8932 21.1449L24.5452 2.1104C24.6387 1.68455 24.652 1.31646 24.5638 0.983835C24.4757 0.651213 24.2616 0.362068 23.9929 0.201804C23.7242 0.0415395 23.4431 -0.0103183 23.1704 0.00164751ZM23.1999 1.14024C23.3107 1.13511 23.3928 1.14777 23.4187 1.16321C23.4446 1.17865 23.4562 1.17661 23.481 1.2704C23.5059 1.36418 23.5193 1.56171 23.4515 1.87087L23.4493 1.87743L19.8181 20.8015C19.8095 20.8205 19.7338 20.9956 19.561 21.1362C19.3848 21.2796 19.1888 21.3915 18.6685 21.1734L13.2337 16.9351L13.0806 16.8148L13.0773 16.8181L11.452 15.5985L20.5859 4.85243C20.6561 4.77007 20.7009 4.66914 20.7149 4.56185C20.729 4.45456 20.7116 4.3455 20.665 4.24785C20.6184 4.1502 20.5445 4.06815 20.4522 4.01162C20.3599 3.95509 20.2533 3.9265 20.1451 3.9293C20.0394 3.93205 19.9366 3.96466 19.8487 4.02337L6.63181 12.8346L1.63884 11.1251C1.63884 11.1251 1.14304 10.8492 1.11931 10.657C1.11799 10.6463 1.11214 10.656 1.1379 10.6176C1.16367 10.5792 1.22843 10.5145 1.30962 10.4579C1.47201 10.3448 1.65743 10.2763 1.65743 10.2763L1.67603 10.2698L1.69462 10.2621C1.69462 10.2621 6.79709 8.07324 11.989 5.84883C14.585 4.73663 17.2034 3.61577 19.2176 2.75462C21.2312 1.89368 22.6863 1.27399 22.8095 1.22446C22.9497 1.16829 23.0892 1.14537 23.1999 1.14024ZM17.1427 7.17337L10.216 15.3229L10.2127 15.3262C10.2019 15.3392 10.1917 15.3527 10.1821 15.3666C10.1711 15.3818 10.1609 15.3975 10.1515 15.4137C10.1126 15.4797 10.0876 15.5531 10.0782 15.6291C10.0782 15.6306 10.0782 15.6321 10.0782 15.6335L9.17587 19.6913C9.16087 19.6475 9.15037 19.6315 9.13431 19.5798V19.5787C8.84771 18.6578 7.54103 14.2983 7.36025 13.6954L17.1427 7.17337ZM10.9981 16.6584L12.2427 17.5924L10.414 19.2877L10.9981 16.6584Z" fill="white"/>
</svg>
