<svg width="20" height="20" viewBox="0 0 20 20" fill="none" xmlns="http://www.w3.org/2000/svg">
<path d="M18.1443 0H1.85568C0.830817 0 0 0.830817 0 1.85568V18.1443C0 19.1692 0.830817 20 1.85568 20H18.1443C19.1692 20 20 19.1692 20 18.1443V1.85568C20 0.830817 19.1692 0 18.1443 0Z" fill="#7A7A7A" fill-opacity="0.5"/>
<path d="M15.7636 13.5727C15.4727 13.6136 14.05 13.5727 13.9761 13.5727C13.6084 13.5774 13.2535 13.4369 12.9886 13.1818C12.6886 12.8931 12.4205 12.5749 12.1273 12.2727C12.0406 12.1809 11.9467 12.0962 11.8466 12.0193C11.6125 11.8386 11.3807 11.8795 11.2705 12.1556C11.1843 12.454 11.1243 12.7593 11.0909 13.0681C11.0716 13.3477 10.8943 13.5227 10.5807 13.542C10.3864 13.5522 10.192 13.5556 10 13.5511C9.30011 13.5466 8.61123 13.3764 7.98977 13.0545C7.31735 12.6798 6.7315 12.1675 6.27045 11.5511C5.5125 10.5829 4.90682 9.51926 4.36591 8.42267C4.3375 8.36813 3.78295 7.18858 3.76932 7.1329C3.71932 6.94654 3.76932 6.76813 3.92273 6.70676C4.02045 6.66926 5.84773 6.70676 5.87841 6.70676C6.01425 6.70559 6.14695 6.74768 6.25727 6.82695C6.3676 6.90622 6.44982 7.01855 6.49205 7.14767C6.82983 8.01258 7.2923 8.82343 7.86477 9.55449C7.94489 9.65225 8.03866 9.73797 8.14318 9.80904C8.29205 9.91017 8.43295 9.87495 8.49432 9.70335C8.56703 9.46527 8.60979 9.21906 8.62159 8.9704C8.63182 8.47722 8.62159 8.15222 8.59432 7.66017C8.57614 7.34426 8.46477 7.06699 7.99886 6.97835C7.85568 6.95335 7.84318 6.83517 7.93523 6.71699C8.12727 6.47154 8.38977 6.4329 8.68409 6.41813C9.12273 6.39313 9.56136 6.41017 10 6.41813H10.0955C10.2864 6.41743 10.4768 6.43686 10.6636 6.47608C10.7741 6.49842 10.8744 6.55584 10.9495 6.6398C11.0247 6.72376 11.0707 6.82976 11.0807 6.94199C11.1031 7.06643 11.1126 7.19286 11.1091 7.31926C11.0977 7.8579 11.0716 8.3954 11.0659 8.93404C11.0607 9.14731 11.0801 9.36046 11.1239 9.56926C11.1864 9.85563 11.383 9.92722 11.5784 9.7204C11.8315 9.45304 12.0636 9.16658 12.2727 8.86358C12.6425 8.31135 12.9475 7.71845 13.1818 7.09654C13.3091 6.77722 13.4091 6.70676 13.75 6.70676H15.6886C15.8039 6.70474 15.9188 6.72006 16.0295 6.75222C16.0687 6.76252 16.1054 6.78079 16.1372 6.80591C16.169 6.83102 16.1952 6.86243 16.2143 6.89817C16.2334 6.9339 16.2449 6.9732 16.2481 7.01359C16.2513 7.05398 16.2462 7.0946 16.233 7.1329C16.1375 7.5579 15.908 7.9204 15.6648 8.26926C15.2705 8.82835 14.8545 9.37267 14.4511 9.92267C14.4001 9.99562 14.3534 10.0715 14.3114 10.1499C14.1591 10.4238 14.1705 10.5772 14.3909 10.8056C14.7432 11.167 15.1193 11.5068 15.4591 11.8795C15.7086 12.1505 15.9337 12.4429 16.1318 12.7534C16.3807 13.1386 16.2273 13.5068 15.7636 13.5727Z" fill="white"/>
</svg>
