<svg width="18" height="22" viewBox="0 0 18 22" fill="none" xmlns="http://www.w3.org/2000/svg">
<path d="M3.09962 14.7357C2.86808 14.7357 2.68066 14.9231 2.68066 15.1546V19.0573C2.68066 19.2738 2.84573 19.4548 3.06135 19.4746C3.07588 19.476 3.16944 19.4838 3.3158 19.4838C3.77022 19.4838 4.73074 19.4067 5.38291 18.8112C5.81387 18.418 6.03228 17.8828 6.03228 17.2209C6.03228 15.1666 4.43747 14.7357 3.09962 14.7357ZM4.82012 18.1904C4.45367 18.5266 3.89088 18.6185 3.51857 18.6398V15.5867C4.40256 15.6493 5.19438 15.9652 5.19438 17.2206C5.19438 17.6421 5.07205 17.9594 4.82012 18.1904Z" fill="#00769C"/>
<path d="M8.82523 14.7357C7.80717 14.7357 7.00977 15.7783 7.00977 17.1097C7.00977 18.4412 7.80717 19.4838 8.82523 19.4838C9.84328 19.4838 10.6407 18.4412 10.6407 17.1097C10.6407 15.7783 9.84328 14.7357 8.82523 14.7357ZM8.82523 18.6459C8.29539 18.6459 7.84767 17.9423 7.84767 17.1097C7.84767 16.2771 8.29539 15.5736 8.82523 15.5736C9.35506 15.5736 9.80278 16.2771 9.80278 17.1097C9.80278 17.9423 9.35506 18.6459 8.82523 18.6459Z" fill="#00769C"/>
<path d="M14.7502 17.9194C14.5463 17.8088 14.2921 17.8851 14.1824 18.0887C13.9908 18.4428 13.7184 18.6459 13.4352 18.6459C12.9046 18.6459 12.4563 17.9423 12.4563 17.1097C12.4563 16.2771 12.9046 15.5736 13.4352 15.5736C13.7514 15.5736 13.9768 15.8227 14.0829 15.971C14.2176 16.1593 14.479 16.2026 14.6675 16.0682C14.8558 15.9336 14.8993 15.6719 14.7647 15.4836C14.4248 15.0083 13.9402 14.7357 13.4355 14.7357C12.4166 14.7357 11.6187 15.7783 11.6187 17.1097C11.6187 18.4412 12.4166 19.4838 13.4355 19.4838C14.0276 19.4838 14.5823 19.1112 14.9197 18.4873C15.0295 18.2834 14.9538 18.0292 14.7502 17.9194Z" fill="#00769C"/>
<path d="M17.2231 5.35784L12.1231 0.196621C12.0443 0.11702 11.937 0.072052 11.825 0.072052H0.725593C0.494052 0.072052 0.306641 0.259463 0.306641 0.491005V21.4386C0.306641 21.6702 0.494052 21.8576 0.725593 21.8576H16.9251C17.1566 21.8576 17.344 21.6702 17.344 21.4386V5.65222C17.344 5.54218 17.3005 5.43632 17.2231 5.35784ZM12.3166 1.58475L15.928 5.23941H12.3166V1.58475ZM1.14455 21.02V0.910237H11.4787V5.65837C11.4787 5.88991 11.6661 6.07732 11.8977 6.07732H16.5061V21.02H1.14455Z" fill="#00769C"/>
</svg>
