<svg width="437" height="416" viewBox="0 0 437 416" fill="none" xmlns="http://www.w3.org/2000/svg">
<ellipse cx="218.5" cy="208" rx="218.5" ry="208" fill="white"/>
<g clip-path="url(#clip0_745_4962)">
<path d="M138.56 349.08C135.94 347.97 134.31 345.36 134.25 342.52C134.08 333.7 130.66 312.15 104.09 291.94C69.6801 265.76 65.8901 222.4 65.8701 222.25C65.8501 222.17 63.5401 206.7 65.8701 198.27C69.6101 184.7 82.4301 166.12 86.9501 158.05C88.1301 155.94 89.9801 154.27 92.2301 153.4C95.5601 152.12 99.9601 151.97 100.92 159.47C100.95 159.7 101.25 159.76 101.35 159.55C102.96 156.25 110.03 143.31 117.67 152.9C118.8 154.31 119.5 156.02 119.73 157.81C120.23 161.84 120.96 169.9 119.18 172.75C119.07 172.92 119.22 173.13 119.41 173.08C122.12 172.47 132.7 171.1 128.74 187.71C124.22 206.71 123.01 206.1 123.01 206.1C123.01 206.1 131.91 205.16 130.06 214.21C128.21 223.26 127.29 223.81 127.29 223.81C127.29 223.81 126.42 225.62 127.65 228.52C129.04 231.81 181.42 261.98 184.1 289.89L184.44 292.37C185.76 298.85 191.5 331.1 179.21 350.17C178.69 350.97 177.8 351.31 176.93 351.69C172.62 353.56 156.09 356.48 138.55 349.07L138.56 349.08Z" stroke="#D8B9B9" stroke-width="2" stroke-miterlimit="10"/>
<path d="M100.93 159.47C105.18 173.69 88.1702 190.63 85.3702 201.16C84.5702 204.17 85.3702 213.81 85.3702 213.82C85.3702 213.84 88.5402 226.5 100.57 242C110.01 254.18 121.99 259.14 126.71 260.71C127.18 260.87 127.52 260.27 127.15 259.94C119.91 253.56 90.9002 226.33 99.2302 206.13C99.8402 204.65 100.96 203.45 102.41 202.78C106.07 201.09 113.42 199.56 116.72 212.29C120.71 227.67 127.67 228.55 127.67 228.55" stroke="#D8B9B9" stroke-width="2" stroke-miterlimit="10"/>
<path d="M119.19 172.76C119.19 172.76 114.31 190.34 102.22 202.87" stroke="#D8B9B9" stroke-width="2" stroke-miterlimit="10"/>
<path d="M123.52 205.53C123.52 205.53 118.77 210.43 118.37 217.98" stroke="#D8B9B9" stroke-width="2" stroke-miterlimit="10"/>
<path d="M300.65 349.08C303.27 347.97 304.9 345.36 304.96 342.52C305.13 333.7 308.55 312.15 335.12 291.94C369.53 265.76 373.32 222.4 373.34 222.25C373.36 222.17 375.67 206.7 373.34 198.27C369.6 184.7 356.78 166.12 352.26 158.05C351.08 155.94 349.23 154.27 346.98 153.4C343.65 152.12 339.25 151.97 338.29 159.47C338.26 159.7 337.96 159.76 337.86 159.55C336.25 156.25 329.18 143.31 321.54 152.9C320.41 154.31 319.71 156.02 319.48 157.81C318.98 161.84 318.25 169.9 320.03 172.75C320.14 172.92 319.99 173.13 319.8 173.08C317.09 172.47 306.51 171.1 310.47 187.71C314.99 206.71 316.2 206.1 316.2 206.1C316.2 206.1 307.3 205.16 309.15 214.21C311 223.26 311.92 223.81 311.92 223.81C311.92 223.81 312.79 225.62 311.56 228.52C310.17 231.81 257.79 261.98 255.11 289.89L254.77 292.37C253.45 298.85 247.71 331.1 260 350.17C260.52 350.97 261.41 351.31 262.28 351.69C266.59 353.56 283.12 356.48 300.66 349.07L300.65 349.08Z" stroke="#D8B9B9" stroke-width="2" stroke-miterlimit="10"/>
<path d="M338.28 159.47C334.03 173.69 351.04 190.63 353.84 201.16C354.64 204.17 353.84 213.81 353.84 213.82C353.84 213.84 350.67 226.5 338.64 242C329.2 254.18 317.22 259.14 312.5 260.71C312.03 260.87 311.69 260.27 312.06 259.94C319.3 253.56 348.31 226.33 339.98 206.13C339.37 204.65 338.25 203.45 336.8 202.78C333.14 201.09 325.79 199.56 322.49 212.29C318.5 227.67 311.54 228.55 311.54 228.55" stroke="#D8B9B9" stroke-width="2" stroke-miterlimit="10"/>
<path d="M320.02 172.76C320.02 172.76 324.9 190.34 336.99 202.87" stroke="#D8B9B9" stroke-width="2" stroke-miterlimit="10"/>
<path d="M315.68 205.53C315.68 205.53 320.43 210.43 320.83 217.98" stroke="#D8B9B9" stroke-width="2" stroke-miterlimit="10"/>
<path d="M213.8 76.68C213.8 76.68 260.83 35.86 298.05 76.68C335.27 117.5 300.66 187.81 300.66 187.81C300.66 187.81 280.92 239.9 233.4 270.56H218.73C218.73 270.56 85.8299 186.72 133.5 95.3C133.5 95.3 158.94 41.73 213.81 76.68H213.8Z" fill="#E53732"/>
<path d="M175.19 102.11C172.21 103.53 164.42 109.02 164.12 127.57C164.12 127.57 162.27 145.75 158.2 149.43C154.13 153.11 151.54 158.29 153.02 177.53C153.02 177.53 155.27 183.63 158.26 170.42C158.55 169.14 159.42 167.23 160.19 166.16C161.41 164.46 163.23 160.82 164.4 156.69C164.45 156.52 164.53 156.36 164.64 156.23C165.55 155.14 169.68 150.07 171.11 146.37C171.19 146.16 171.5 146.21 171.5 146.44C171.45 149.47 171.32 156.53 171.24 161.21C171.2 163.26 172 165.2 173.28 166.8C173.72 167.35 174.16 168.17 174.49 169.39C175.43 172.83 177.43 206.75 178.02 217.1C178.12 218.85 178.8 220.49 179.93 221.83C181.26 223.42 183.25 226.27 185.52 231.12C185.63 231.35 185.79 231.55 186 231.69C187.25 232.55 191.7 234.98 192.9 226.78C193.78 220.77 194.38 215.73 194.71 212.81C194.91 211.01 195.54 209.3 196.56 207.81C197.81 205.98 199.52 203.45 200.6 201.83C202.37 199.18 200.79 168.34 200.62 165.03C200.61 164.83 200.64 164.64 200.71 164.45C201.07 163.5 202.33 160.53 204.33 159.68C205.02 159.39 205.82 159.74 206.11 160.44C206.94 162.46 209.03 167.08 211.38 168.52C212.2 169.02 212.99 169.56 213.67 170.24C214.57 171.14 216.11 172.58 218.71 174.79C219.05 175.08 219.25 175.51 219.23 175.95L218.36 206.35C218.34 207.1 218.88 207.74 219.62 207.84C219.91 207.88 220.23 207.92 220.58 207.97C222.36 208.21 223.69 209.73 223.69 211.52V224.17C223.69 224.49 223.59 224.8 223.4 225.05C222.52 226.2 220.2 229.66 223.69 230.05C224.35 230.12 224.94 230.17 225.46 230.19C227.42 230.28 229.05 228.71 229.05 226.75V211.56C229.05 210.75 229.71 210.1 230.51 210.1H230.99C231.74 210.1 232.37 210.66 232.45 211.41L233.92 225.26C234.1 226.92 235.26 228.3 236.86 228.77C238.55 229.26 240.64 229.53 241.87 228.41C243.96 226.53 241.93 223.9 239.64 222.87C239.15 222.65 238.81 222.19 238.76 221.66L237.69 209.27C237.69 209.16 237.76 209.06 237.88 209.05C238.61 209.01 241.05 208.74 241.64 206.96C242.26 205.09 243.08 197.08 238.93 192.06C237.7 190.58 237.02 188.72 236.8 186.81L236.75 186.38C236.62 185.24 237.36 184.43 238.3 184.43C241.98 184.42 250.03 183.18 249.44 172.47C249.4 171.77 249.88 171.14 250.56 170.98C251.45 170.77 252.32 171.42 252.36 172.33L253.4 194.34C253.49 196.16 254.31 197.86 255.67 199.07C256.88 200.15 258.2 201.58 258.45 202.86C258.87 205.1 258.53 215.79 258.46 217.69C258.46 217.88 258.41 218.05 258.34 218.22C257.76 219.49 255.32 225.35 258.66 227.01C262.31 228.82 261.71 225.87 264.98 224.06C265.68 223.67 266.14 223.2 266.29 223.23C267.21 223.41 268.15 222.99 268.72 221.65C269.35 220.19 268.85 204.4 268.74 201.05C268.73 200.66 268.88 200.3 269.16 200.03C270.45 198.84 274.12 195.09 274.31 190.86C274.52 186.15 274.35 162.98 274.31 159.2C274.31 158.87 274.42 158.56 274.63 158.31C275.65 157.12 278.76 153.15 279.19 148.53C279.19 148.46 279.24 148.41 279.3 148.39C280.01 148.18 284.16 146.67 284.8 140.49C285.36 135.07 282.93 131.9 281.94 130.85C281.68 130.58 281.53 130.23 281.52 129.86L281.3 118.21L281.28 118C281.17 117.33 280.41 113.61 277.45 111.17C275.67 109.7 274.58 107.57 274.67 105.27C274.92 99.14 274.13 88.27 265.67 86.62C265.67 86.62 257.96 84.48 256.5 101.53C256.38 102.94 255.69 104.23 254.65 105.19C252.71 106.99 249.81 110.72 249.81 116.94C249.81 126.27 248.64 153.79 248.64 153.79C248.64 153.79 248.82 161.51 245.08 168.29C244.07 170.11 241.85 170.87 239.9 170.16C237.95 169.45 235.82 168.24 235.82 166.38C235.82 162.88 241.88 149.12 230.92 147.72C221.37 146.5 222.26 158.38 223.27 163.46C223.45 164.38 222.69 165.22 221.75 165.11C218.72 164.77 212.97 163.34 210.52 157.37C210.43 157.16 210.4 156.93 210.42 156.7C210.68 153.39 212.55 126.91 207.3 120.62C207.19 120.48 207.1 120.34 207.04 120.18C206.39 118.31 201.93 106.16 193.8 102.45C193.17 102.16 192.85 101.45 193.05 100.78C194.52 95.97 198.96 78.41 185.89 76.8C171.44 75.02 173.31 91.71 175.94 100.43C176.14 101.1 175.82 101.8 175.19 102.1V102.11Z" fill="white"/>
<path d="M198.78 141.02C198.82 142.35 198.7 143.76 198.26 144.98C198.21 145.12 198.32 145.27 198.47 145.23C199.41 145.01 201.97 144.1 201.56 140.88C201.56 140.84 201.55 140.8 201.54 140.76C201.3 139.05 198.72 139.29 198.77 141.02H198.78Z" fill="#E53732"/>
<path d="M187.84 187.81C187.84 187.81 183.96 195.21 187.78 199.63C187.82 199.68 187.88 199.7 187.94 199.7C189.48 199.7 190.77 198.56 190.97 197.04C191.33 194.28 191.63 190.07 190.54 187.81C188.82 184.27 187.84 187.81 187.84 187.81Z" fill="#E53732"/>
<path d="M271.17 135.13V138.99C271.17 139.09 271.25 139.17 271.35 139.17C272.27 139.17 276.38 138.95 276.78 135.58C276.84 135.05 276.65 134.52 276.29 134.12C275.95 133.75 275.47 133.29 274.86 132.93C273.23 131.96 271.16 133.23 271.16 135.13H271.17Z" fill="#E53732"/>
<path d="M33.5299 185.77L39.7699 181.84L41.2999 184.57L33.1599 189.65L26.1099 183.14L28.1199 180.74L33.5199 185.76L33.5299 185.77ZM34.2099 178.58L40.4499 174.65L41.9799 177.38L33.8399 182.46L26.7899 175.95L28.7999 173.55L34.1999 178.57L34.2099 178.58Z" fill="#312783"/>
<path d="M22.3498 153.42L26.2598 154.2L24.6498 162.29L44.0398 166.16L43.0998 170.86L19.7998 166.22L22.3498 153.43V153.42Z" fill="#312783"/>
<path d="M32.5497 146.37C33.3197 143.81 34.6297 141.95 36.4797 140.82C38.4997 139.55 40.6897 139.27 43.0597 139.98C45.3997 140.68 47.0697 142.12 48.0597 144.28C48.9797 146.25 49.0597 148.52 48.2897 151.08C47.5197 153.64 46.2097 155.5 44.3597 156.63C42.3397 157.9 40.1597 158.18 37.8197 157.48C35.4497 156.77 33.7797 155.33 32.7897 153.16C31.8697 151.19 31.7897 148.92 32.5597 146.36L32.5497 146.37ZM42.4497 152.68C43.5197 152.1 44.2297 151.2 44.5997 149.98C44.9697 148.76 44.8597 147.61 44.2897 146.54C43.7197 145.47 42.8597 144.77 41.7197 144.42C40.5597 144.07 39.4497 144.19 38.3797 144.77C37.3097 145.35 36.5997 146.25 36.2297 147.47C35.8597 148.69 35.9697 149.84 36.5397 150.91C37.1097 151.98 37.9797 152.69 39.1397 153.03C40.2797 153.37 41.3797 153.25 42.4497 152.67V152.68Z" fill="#312783"/>
<path d="M51.4198 134.74L60.7098 138.85L58.8898 142.96L37.3198 133.41L39.1398 129.3L40.9598 130.11C39.9298 128.34 39.8698 126.42 40.7798 124.35C41.6698 122.33 43.0398 120.95 44.8798 120.2C46.9398 119.37 49.1298 119.46 51.4498 120.49C53.8398 121.55 55.3998 123.15 56.1398 125.3C56.7598 127.19 56.6398 129.11 55.7698 131.06C54.9098 133.01 53.4598 134.24 51.4198 134.73V134.74ZM43.8098 127.02C43.3398 128.08 43.2698 129.1 43.5798 130.1C43.9298 131.36 44.7398 132.27 45.9998 132.82C47.2798 133.39 48.4998 133.39 49.6598 132.82C50.6198 132.36 51.3298 131.6 51.7998 130.54C52.2898 129.44 52.3598 128.37 52.0098 127.33C51.6298 126.14 50.8198 125.27 49.5798 124.72C48.3598 124.18 47.1898 124.16 46.0598 124.65C45.0498 125.12 44.2998 125.9 43.8098 127V127.02Z" fill="#312783"/>
<path d="M50.4898 105.85C51.8698 103.56 53.5999 102.09 55.6799 101.45C57.9499 100.72 60.1398 101 62.2598 102.27C64.3598 103.53 65.6098 105.34 66.0298 107.68C66.4398 109.82 65.9498 112.03 64.5698 114.32C63.1898 116.61 61.4599 118.08 59.3799 118.72C57.1098 119.45 54.9299 119.18 52.8299 117.92C50.7099 116.65 49.4499 114.84 49.0299 112.49C48.6199 110.35 49.1098 108.14 50.4898 105.84V105.85ZM58.5198 114.42C59.6999 114.12 60.6098 113.43 61.2698 112.34C61.9298 111.25 62.1098 110.11 61.8198 108.93C61.5298 107.75 60.8799 106.86 59.8598 106.25C58.8198 105.63 57.7199 105.46 56.5399 105.76C55.3599 106.05 54.4499 106.75 53.7899 107.84C53.1299 108.93 52.9499 110.07 53.2399 111.25C53.5299 112.43 54.1898 113.33 55.2298 113.95C56.2498 114.56 57.3498 114.72 58.5198 114.43V114.42Z" fill="#312783"/>
<path d="M59.1997 93.39L67.3397 82.92L76.5997 90.11L78.0497 88.25L84.5197 93.28L82.0297 96.48L78.4797 93.73L71.7397 102.4L75.2797 105.15L72.7897 108.35L66.3197 103.32C67.0297 102.29 67.0997 101.14 66.5097 99.88C66.0697 99.01 65.1597 98.04 63.7697 96.96L59.1797 93.4L59.1997 93.39ZM73.8397 93.66L67.5097 88.74L64.6197 92.46L67.3197 94.56C68.9697 95.84 69.8197 97.25 69.8597 98.78L73.8397 93.66Z" fill="#312783"/>
<path d="M79.7496 70.21L82.8496 73.16C81.4996 73.27 80.3296 73.84 79.3296 74.89C78.3496 75.92 77.8896 77.01 77.9596 78.16C78.0296 79.31 78.4996 80.3 79.3796 81.14C80.2896 82.01 81.3496 82.41 82.5496 82.36C83.7496 82.3 84.8196 81.79 85.7496 80.81C86.6696 79.85 87.1496 78.69 87.2096 77.32L90.2796 80.24C89.8296 81.64 89.1096 82.86 88.1296 83.89C86.4196 85.69 84.4596 86.65 82.2596 86.8C79.9696 86.96 77.9596 86.22 76.2196 84.56C74.3296 82.76 73.4496 80.65 73.5896 78.23C73.6896 76.19 74.5396 74.35 76.1096 72.69C77.1796 71.57 78.3896 70.74 79.7496 70.21Z" fill="#312783"/>
<path d="M82.54 66.92L85.94 63.98L89.86 68.51L90.46 60.08L94.7 56.42L93.74 66.35L105.07 67.85L100.72 71.61L92.37 70.4L92.29 71.32L96.04 75.66L92.64 78.6L82.55 66.93L82.54 66.92Z" fill="#312783"/>
<path d="M108.63 49.05L107.5 47.41L111.2 44.86L119.95 57.57L116.25 60.12L115.12 58.48C115.07 60.53 114.2 62.14 112.5 63.31C110.52 64.68 108.45 65.13 106.31 64.68C104.16 64.23 102.44 63.05 101.13 61.15C99.81 59.23 99.31 57.21 99.64 55.08C99.96 52.95 101.09 51.23 103.01 49.9C104.91 48.59 106.79 48.31 108.64 49.05H108.63ZM109.44 51.65C108.28 51.44 107.18 51.69 106.12 52.42C105.07 53.14 104.43 54.09 104.22 55.24C104 56.4 104.25 57.49 104.95 58.5C105.65 59.51 106.58 60.14 107.75 60.36C108.92 60.58 110.03 60.33 111.08 59.61C112.13 58.89 112.76 57.94 112.97 56.77C113.18 55.6 112.93 54.51 112.23 53.49C111.53 52.47 110.6 51.86 109.44 51.65Z" fill="#312783"/>
<path d="M121.89 56.42L123.27 49.1C122.3 49.47 121.35 49.52 120.43 49.27C119.31 48.96 118.42 48.2 117.76 46.99C117 45.59 116.94 44.15 117.59 42.66C118.17 41.37 119.42 40.21 121.31 39.17L126.88 36.14L134.26 49.69L130.31 51.84L127.72 47.08L127.27 47.33L126.43 53.95L121.9 56.41L121.89 56.42ZM126.22 44.33L124.57 41.29L122.85 42.22C122.25 42.55 121.87 42.91 121.73 43.32C121.56 43.82 121.6 44.31 121.86 44.79C122.13 45.29 122.51 45.57 122.99 45.63C123.42 45.7 123.92 45.57 124.5 45.25L126.22 44.32V44.33Z" fill="#312783"/>
<path d="M139.8 30.19L153.97 24.97L159.3 39.45L155.08 41L151.03 30L145.29 32.11L149.34 43.11L145.12 44.66L139.79 30.18L139.8 30.19Z" fill="#312783"/>
<path d="M166.99 20.87C169.59 20.22 171.85 20.41 173.77 21.42C175.89 22.51 177.25 24.25 177.85 26.65C178.44 29.03 178.06 31.19 176.7 33.14C175.48 34.94 173.57 36.16 170.97 36.81C168.37 37.46 166.11 37.27 164.19 36.26C162.07 35.17 160.72 33.44 160.12 31.07C159.52 28.67 159.9 26.5 161.26 24.54C162.48 22.74 164.39 21.52 166.99 20.87ZM166.61 32.61C167.65 33.23 168.79 33.39 170.03 33.08C171.27 32.77 172.2 32.1 172.83 31.06C173.46 30.02 173.63 28.93 173.34 27.77C173.05 26.6 172.38 25.7 171.34 25.07C170.3 24.44 169.16 24.29 167.92 24.6C166.68 24.91 165.75 25.58 165.12 26.62C164.49 27.66 164.33 28.76 164.62 29.94C164.91 31.09 165.57 31.98 166.61 32.6V32.61Z" fill="#312783"/>
<path d="M194.4 16.43L196.54 31.71L192.09 32.33L190.47 20.72L186.16 21.32L186.95 26.93C187.23 28.91 186.94 30.48 186.09 31.66C185.24 32.88 183.9 33.62 182.05 33.88C181.56 33.95 181.12 33.96 180.72 33.92L180.21 30.25C180.51 30.25 180.74 30.25 180.91 30.22C181.71 30.11 182.28 29.78 182.63 29.22C182.94 28.75 183.03 28.07 182.91 27.2L181.65 18.2L194.42 16.41L194.4 16.43Z" fill="#312783"/>
<path d="M199.62 15.92L204.11 15.76L204.45 25.27L211.48 15.5L215.97 15.34L216.52 30.76L212.03 30.92L211.69 21.41L204.67 31.18L200.18 31.34L199.63 15.92H199.62Z" fill="#312783"/>
<path d="M221.24 15.48L225.72 15.78L225.32 21.75L231.68 16.18L237.27 16.55L229.61 22.93L236.61 31.97L230.87 31.59L225.78 24.86L225.08 25.46L224.7 31.18L220.21 30.88L221.24 15.49V15.48Z" fill="#312783"/>
<path d="M255.37 19.48L252.82 34.7L248.39 33.96L250.33 22.4L246.04 21.68L245.1 27.27C244.77 29.24 244.02 30.65 242.85 31.52C241.68 32.43 240.17 32.73 238.33 32.42C237.85 32.34 237.42 32.22 237.05 32.06L237.66 28.4C237.94 28.5 238.17 28.56 238.34 28.59C239.14 28.72 239.79 28.58 240.28 28.16C240.71 27.8 241 27.19 241.15 26.32L242.65 17.36L255.37 19.49V19.48Z" fill="#312783"/>
<path d="M260.49 20.55L264.82 21.74L262.3 30.92L271.92 23.69L276.25 24.88L272.17 39.76L267.84 38.57L270.35 29.4L260.73 36.63L256.4 35.44L260.48 20.56L260.49 20.55Z" fill="#312783"/>
<path d="M275.64 40.92L281.27 26.55L285.46 28.19L283.47 33.27L289.3 35.55L291.29 30.47L295.48 32.11L289.85 46.48L285.67 44.84L287.96 39L282.13 36.72L279.84 42.56L275.66 40.92H275.64Z" fill="#312783"/>
<path d="M300.3 34.29L304.29 36.37L299.89 44.81L310.82 39.78L314.81 41.86L307.68 55.54L303.69 53.46L308.08 45.02L297.15 50.05L293.16 47.97L300.29 34.29H300.3Z" fill="#312783"/>
<path d="M319.33 44.57L323.08 47.05L319.78 52.04L328.06 50.34L332.73 53.43L322.91 55.18L324.51 66.5L319.72 63.33L318.63 54.96L317.72 55.13L314.55 59.91L310.8 57.43L319.32 44.57H319.33Z" fill="#312783"/>
<path d="M343.57 64.82L344.84 63.28L348.3 66.15L338.46 78.03L335 75.16L336.27 73.62C334.28 74.13 332.5 73.73 330.9 72.42C329.05 70.88 328.04 69.02 327.9 66.83C327.75 64.64 328.41 62.66 329.88 60.88C331.37 59.09 333.17 58.06 335.31 57.79C337.44 57.52 339.41 58.13 341.21 59.62C342.99 61.09 343.77 62.82 343.56 64.81L343.57 64.82ZM341.29 66.31C341.18 65.14 340.63 64.14 339.65 63.33C338.67 62.51 337.59 62.16 336.41 62.27C335.24 62.38 334.26 62.91 333.47 63.86C332.68 64.81 332.34 65.88 332.45 67.06C332.55 68.24 333.1 69.24 334.08 70.06C335.06 70.87 336.15 71.22 337.33 71.11C338.51 70.99 339.5 70.46 340.28 69.51C341.07 68.56 341.4 67.5 341.29 66.32V66.31Z" fill="#312783"/>
<path d="M350.69 89.97L347.73 86.2L366.43 71.53L369.39 75.3L363.76 94.05L376.35 84.17L379.31 87.94L360.61 102.61L357.65 98.84L363.27 80.09L350.68 89.97H350.69ZM367.95 100.59L370.36 98.7L377.09 107.28L374.68 109.17L367.95 100.59ZM380.46 91.97C381.98 92.2 383.32 93.05 384.49 94.54C385.66 96.03 386.17 97.54 386.03 99.07C385.89 100.6 385.17 101.87 383.88 102.89C382.59 103.9 381.19 104.3 379.66 104.07C378.14 103.84 376.79 102.99 375.63 101.5C374.46 100.01 373.95 98.5 374.09 96.97C374.23 95.44 374.95 94.17 376.24 93.15C377.53 92.14 378.93 91.75 380.46 91.97ZM383.18 98.41C383.27 97.6 383.04 96.84 382.48 96.13C381.92 95.42 381.23 95.01 380.43 94.9C379.63 94.8 378.87 95.03 378.16 95.58C377.45 96.14 377.05 96.82 376.96 97.62C376.87 98.43 377.1 99.19 377.66 99.9C378.22 100.61 378.9 101.02 379.71 101.13C380.51 101.23 381.27 101 381.98 100.45C382.69 99.89 383.09 99.21 383.18 98.41Z" fill="#312783"/>
<path d="M377.21 129.66L395.06 121.14L393.54 117.95L397.14 116.23L400.73 123.74L379.28 133.98L377.22 129.66H377.21Z" fill="#312783"/>
<path d="M382.75 142.15L401.23 135.12L399.97 131.81L403.7 130.39L406.66 138.17L384.45 146.62L382.75 142.14V142.15Z" fill="#312783"/>
<path d="M385.9 149.94L395.46 154.82C398.65 156.4 400.61 157.32 401.34 157.57C402.92 158.13 404.27 158.26 405.4 157.96C406.43 157.68 407.18 157.11 407.63 156.26C408.09 155.41 408.18 154.49 407.91 153.49C407.6 152.35 406.98 151.55 406.06 151.09C405.13 150.63 404.14 150.52 403.07 150.76L401.77 146C404.11 145.46 406.19 145.78 408.01 146.94C409.83 148.1 411.06 149.87 411.7 152.24C412.41 154.85 412.24 157.09 411.2 158.96C410.16 160.83 408.65 162.04 406.68 162.58C405.58 162.88 404.41 162.92 403.17 162.7C401.93 162.48 400.96 162.21 400.27 161.89C399.58 161.57 398.66 161.09 397.5 160.47L392.09 157.55L394.42 166.12L390.57 167.17L385.89 149.96L385.9 149.94Z" fill="#312783"/>
<path d="M399.66 173.93L404.78 168.63L406.92 170.92L400.23 177.8L391.83 173.16L393.21 170.35L399.65 173.94L399.66 173.93ZM400.72 181.07L405.84 175.77L407.98 178.06L401.29 184.94L392.89 180.3L394.28 177.49L400.72 181.08V181.07Z" fill="#312783"/>
<path d="M42.9803 253.39L45.6203 251.15C47.1503 252.55 48.0403 254.35 48.2803 256.55C48.4703 258.22 48.2503 259.58 47.6303 260.62C46.9303 261.83 45.8403 262.52 44.3603 262.69C42.8603 262.86 41.6103 262.3 40.6303 261.02C40.5103 261.77 40.2203 262.47 39.7603 263.1C39.0903 263.94 38.1303 264.43 36.8803 264.57C35.3003 264.75 33.9803 264.32 32.9203 263.28C31.8403 262.24 31.1803 260.67 30.9403 258.57C30.6403 255.92 31.3103 253.69 32.9303 251.89L35.9503 253.64C34.9203 254.89 34.4903 256.28 34.6703 257.81C34.7803 258.77 35.0403 259.42 35.4603 259.77C35.8803 260.12 36.3303 260.26 36.8103 260.21C37.4103 260.14 37.8303 259.83 38.0803 259.27C38.2403 258.88 38.2703 258.28 38.1803 257.45L37.9803 255.7L41.2903 255.33L41.4803 257.01C41.5603 257.76 41.7503 258.3 42.0403 258.61C42.3303 258.92 42.7203 259.05 43.2303 259C44.3303 258.88 44.8003 258.06 44.6303 256.55C44.4903 255.27 43.9403 254.22 42.9803 253.4V253.39Z" fill="#2C4476"/>
<path d="M50.4302 272.92L53.7702 284.88L41.7702 288.23L42.3602 290.36L33.9702 292.71L32.9502 289.05L37.5502 287.77L34.7802 277.87L30.1802 279.16L29.1602 275.5L37.5502 273.16C37.9402 274.27 38.8502 274.93 40.2702 275.16C41.2702 275.28 42.6802 275.1 44.4802 274.59L50.4202 272.93L50.4302 272.92ZM40.6402 284.18L48.8502 281.89L47.6602 277.64L44.1602 278.62C42.0202 279.22 40.3002 279.12 39.0102 278.34L40.6402 284.19V284.18Z" fill="#2C4476"/>
<path d="M60.9601 300.79C62.0501 303.05 62.2201 305.2 61.5001 307.23C60.7301 309.47 59.1601 311.15 56.7901 312.29C54.4501 313.42 52.1601 313.58 49.9301 312.79C47.8801 312.09 46.3201 310.61 45.2301 308.35C44.1401 306.09 43.9701 303.94 44.7001 301.91C45.4701 299.67 47.0301 297.99 49.3801 296.87C51.7501 295.73 54.0501 295.56 56.2701 296.35C58.3201 297.05 59.8801 298.53 60.9701 300.79H60.9601ZM48.8401 303.29C48.3701 304.41 48.3901 305.51 48.9101 306.58C49.4301 307.66 50.2701 308.36 51.4401 308.7C52.6101 309.04 53.7601 308.92 54.9001 308.38C56.0601 307.82 56.8801 306.98 57.3501 305.86C57.8201 304.74 57.8001 303.64 57.2801 302.56C56.7601 301.48 55.9201 300.78 54.7501 300.45C53.5801 300.12 52.4201 300.23 51.2601 300.79C50.1201 301.34 49.3201 302.17 48.8501 303.29H48.8401Z" fill="#2C4476"/>
<path d="M59.43 327.71L50.66 334L48.21 330.58L68.59 315.98L71.04 319.4L69.32 320.64C71.41 320.53 73.08 321.33 74.31 323.05C75.52 324.73 75.91 326.54 75.5 328.48C75.04 330.65 73.71 332.52 71.51 334.1C69.25 335.72 67 336.37 64.76 336.05C62.81 335.75 61.25 334.79 60.08 333.16C58.91 331.53 58.7 329.72 59.44 327.72L59.43 327.71ZM70.31 324.5C69.68 323.62 68.85 323.1 67.83 322.92C66.56 322.67 65.33 322.97 64.14 323.82C62.93 324.69 62.23 325.75 62.05 327.02C61.9 328.06 62.13 329.02 62.77 329.9C63.43 330.82 64.29 331.36 65.37 331.52C66.6 331.72 67.8 331.39 68.97 330.56C70.12 329.74 70.8 328.72 71.03 327.51C71.21 326.42 70.97 325.41 70.32 324.5H70.31Z" fill="#2C4476"/>
<path d="M89.5699 340.84C91.3399 342.61 92.2199 344.58 92.2099 346.74C92.2099 349.11 91.2999 351.22 89.4399 353.07C87.5999 354.91 85.4999 355.82 83.1299 355.81C80.9699 355.83 78.9999 354.95 77.2299 353.17C75.4599 351.39 74.5799 349.43 74.5899 347.27C74.5899 344.9 75.4999 342.8 77.3299 340.96C79.1599 339.12 81.2999 338.18 83.6599 338.19C85.8199 338.17 87.7899 339.05 89.5599 340.83L89.5699 340.84ZM78.9599 347.21C78.8899 348.42 79.2699 349.45 80.1199 350.3C80.9699 351.15 81.9999 351.53 83.2099 351.46C84.4199 351.39 85.4699 350.9 86.3699 350.01C87.2799 349.1 87.7699 348.04 87.8499 346.83C87.9199 345.62 87.5399 344.59 86.6899 343.74C85.8399 342.89 84.8099 342.51 83.5999 342.58C82.3899 342.65 81.3299 343.15 80.4199 344.06C79.5299 344.95 79.0399 346 78.9699 347.22L78.9599 347.21Z" fill="#2C4476"/>
<path d="M101.78 352.66L107.05 356.61C108.32 357.56 109.07 358.54 109.3 359.53C109.59 360.76 109.33 361.9 108.53 362.97C108.11 363.54 107.57 363.96 106.91 364.24C106.25 364.52 105.57 364.58 104.85 364.43C105.35 364.99 105.66 365.67 105.79 366.46C105.94 367.52 105.63 368.57 104.86 369.6C103.94 370.83 102.79 371.48 101.41 371.56C100.29 371.6 99.1799 371.22 98.0999 370.4L91.9399 365.79L101.77 352.67L101.78 352.66ZM97.4999 365.4L99.0699 366.58C99.6399 367.01 100.14 367.21 100.56 367.18C101.04 367.16 101.45 366.92 101.8 366.45C102.12 366.03 102.21 365.6 102.06 365.18C101.95 364.78 101.64 364.39 101.13 364.01L99.4699 362.77L97.4899 365.41L97.4999 365.4ZM101.25 360.4L102.8 361.56C103.15 361.82 103.51 361.96 103.87 361.98C104.32 362 104.69 361.81 104.99 361.4C105.31 360.98 105.41 360.57 105.31 360.17C105.23 359.89 104.95 359.57 104.48 359.21L102.99 358.09L101.26 360.39L101.25 360.4Z" fill="#2C4476"/>
<path d="M118.86 364.74L122.51 366.83L119.61 371.89L122.46 373.52C123.98 374.39 124.86 375.53 125.11 376.95C125.33 378.09 125.08 379.3 124.35 380.57C123.46 382.13 122.31 383.07 120.9 383.4C119.76 383.68 118.59 383.47 117.39 382.79L110.71 378.97L118.85 364.74H118.86ZM116.18 377.91L117.89 378.89C118.51 379.24 119.03 379.38 119.44 379.3C119.91 379.22 120.29 378.93 120.58 378.42C120.84 377.96 120.88 377.53 120.68 377.13C120.52 376.75 120.17 376.4 119.61 376.08L117.81 375.05L116.17 377.91H116.18Z" fill="#2C4476"/>
<path d="M142.78 389.02L146.08 391.14C145.76 391.5 145.39 391.83 144.97 392.13C144.56 392.44 143.97 392.78 143.21 393.16C142.45 393.54 141.56 393.73 140.54 393.73C139.52 393.73 138.45 393.49 137.32 393.02C135.15 392.12 133.69 390.67 132.92 388.69C132.1 386.6 132.2 384.33 133.22 381.88C134.23 379.46 135.76 377.77 137.8 376.81C139.71 375.94 141.74 375.95 143.88 376.84C146.22 377.81 147.67 379.39 148.23 381.56C148.73 383.47 148.46 385.68 147.41 388.19L147.26 388.54L136.94 384.24C136.51 385.27 136.38 386.21 136.55 387.07C136.79 388.29 137.51 389.15 138.72 389.66C140.16 390.26 141.51 390.04 142.77 389.01L142.78 389.02ZM138.22 381.58L144.75 384.3C145.01 383.26 144.93 382.35 144.53 381.56C144.12 380.78 143.52 380.22 142.74 379.89C141.98 379.57 141.17 379.55 140.32 379.82C139.47 380.1 138.77 380.68 138.23 381.57L138.22 381.58Z" fill="#2C4476"/>
<path d="M185.27 378.11L189.06 378.85C188.03 381.74 186.06 383.36 183.13 383.72L181.51 383.91C181.39 383.91 181.05 383.94 180.49 384C179.93 384.06 179.51 384.11 179.23 384.16C178.95 384.21 178.59 384.31 178.14 384.45C177.69 384.6 177.3 384.79 176.97 385.03C175.78 385.85 174.96 387.12 174.51 388.84H174.58C175.24 388.21 176.08 387.8 177.1 387.62C178.12 387.44 179.13 387.45 180.15 387.65C182.41 388.09 184.09 389.2 185.2 390.98C186.41 392.86 186.76 395.09 186.26 397.67C185.76 400.25 184.53 402.21 182.56 403.55C180.75 404.77 178.67 405.15 176.29 404.69C173.81 404.21 171.99 403.12 170.84 401.44C169.41 399.36 169.06 396.48 169.77 392.79C170.73 387.81 172.18 384.33 174.1 382.37C174.86 381.59 175.74 380.99 176.73 380.58C177.72 380.17 178.52 379.92 179.12 379.85C179.72 379.77 180.5 379.73 181.47 379.71C182.6 379.67 183.44 379.53 183.99 379.29C184.54 379.05 184.96 378.66 185.25 378.12L185.27 378.11ZM174.26 398.78C174.87 399.8 175.78 400.42 176.97 400.66C178.17 400.89 179.24 400.65 180.19 399.93C181.14 399.21 181.73 398.21 181.98 396.92C182.23 395.61 182.06 394.44 181.46 393.43C180.86 392.41 179.95 391.79 178.73 391.55C177.51 391.31 176.43 391.55 175.5 392.27C174.56 392.99 173.97 394.01 173.72 395.32C173.47 396.61 173.65 397.76 174.26 398.78Z" fill="#2C4476"/>
<path d="M206.28 402.43L210.09 403.36C209.9 403.8 209.66 404.24 209.37 404.66C209.08 405.08 208.64 405.6 208.04 406.21C207.45 406.82 206.67 407.29 205.7 407.62C204.73 407.95 203.64 408.08 202.43 408C200.09 407.85 198.23 406.96 196.86 405.33C195.4 403.62 194.76 401.44 194.93 398.79C195.1 396.17 195.99 394.08 197.61 392.51C199.13 391.06 201.05 390.42 203.37 390.56C205.89 390.72 207.78 391.74 209.02 393.62C210.11 395.26 210.57 397.44 210.4 400.16L210.38 400.54L199.22 399.83C199.15 400.94 199.33 401.87 199.77 402.63C200.39 403.71 201.36 404.29 202.67 404.37C204.23 404.47 205.44 403.83 206.29 402.44L206.28 402.43ZM199.55 396.88L206.61 397.33C206.52 396.26 206.15 395.42 205.51 394.81C204.87 394.2 204.12 393.87 203.28 393.81C202.45 393.76 201.68 394 200.97 394.53C200.26 395.07 199.78 395.85 199.56 396.87L199.55 396.88Z" fill="#2C4476"/>
<path d="M230.66 391.44L230.87 395.98C229.88 395.06 228.71 394.64 227.36 394.7C226.03 394.76 225.01 395.26 224.32 396.18C223.63 397.11 223.31 398.22 223.37 399.5C223.43 400.84 223.89 401.93 224.75 402.77C225.61 403.62 226.67 404.01 227.93 403.95C229.17 403.89 230.25 403.36 231.17 402.36L231.38 406.86C230.17 407.6 228.9 408 227.57 408.06C225.25 408.17 223.29 407.46 221.7 405.94C220.04 404.37 219.15 402.32 219.03 399.77C218.9 397 219.66 394.74 221.31 392.99C222.69 391.51 224.45 390.72 226.59 390.62C228.04 390.55 229.4 390.82 230.67 391.42L230.66 391.44Z" fill="#2C4476"/>
<path d="M241.5 406.42L238.96 390.22L243.12 389.57L245.05 401.88L250.57 401.01L248.64 388.7L252.8 388.05L254.73 400.36L257.12 399.99L258.47 408.59L254.72 409.18L253.98 404.47L241.5 406.43V406.42Z" fill="#2C4476"/>
<path d="M275.91 393.7L279.81 393.3C279.78 393.78 279.7 394.27 279.56 394.77C279.43 395.27 279.18 395.9 278.83 396.67C278.48 397.44 277.9 398.14 277.1 398.78C276.3 399.41 275.31 399.9 274.14 400.23C271.88 400.87 269.84 400.65 268 399.57C266.05 398.45 264.72 396.61 263.99 394.06C263.27 391.53 263.41 389.26 264.42 387.25C265.37 385.38 266.96 384.12 269.2 383.49C271.63 382.8 273.75 383.13 275.54 384.48C277.12 385.66 278.28 387.56 279.03 390.18L279.13 390.54L268.38 393.6C268.68 394.67 269.17 395.49 269.83 396.06C270.78 396.87 271.88 397.09 273.14 396.73C274.64 396.3 275.56 395.29 275.9 393.7H275.91ZM267.71 390.72L274.51 388.79C274.06 387.81 273.44 387.15 272.63 386.79C271.82 386.43 271.01 386.36 270.19 386.6C269.4 386.83 268.75 387.31 268.26 388.06C267.77 388.81 267.58 389.7 267.71 390.74V390.72Z" fill="#2C4476"/>
<path d="M291.04 394.16L284.64 379.06L288.52 377.42L290.78 382.75L296.18 380.46L293.92 375.12L297.8 373.48L304.2 388.58L300.32 390.22L297.72 384.08L292.32 386.37L294.92 392.51L291.04 394.15V394.16Z" fill="#2C4476"/>
<path d="M314.3 383.53L306.03 369.37L309.66 367.25L312.58 372.25L317.65 369.29L314.73 364.29L318.37 362.17L326.64 376.33L323 378.45L319.64 372.7L314.57 375.66L317.93 381.42L314.3 383.54V383.53Z" fill="#2C4476"/>
<path d="M326.04 357.1L329.33 354.48L332.96 359.04L335.52 357C336.89 355.91 338.28 355.51 339.69 355.81C340.83 356.03 341.86 356.71 342.77 357.85C343.89 359.25 344.34 360.67 344.12 362.1C343.96 363.26 343.33 364.27 342.25 365.13L336.23 369.92L326.02 357.09L326.04 357.1ZM337.28 364.46L338.82 363.24C339.38 362.79 339.7 362.36 339.78 361.95C339.88 361.48 339.75 361.02 339.39 360.57C339.06 360.15 338.67 359.96 338.23 359.99C337.82 359.99 337.36 360.19 336.86 360.6L335.24 361.89L337.29 364.47L337.28 364.46ZM337.16 348.24L340.45 345.62L350.66 358.45L347.37 361.07L337.16 348.24Z" fill="#2C4476"/>
<path d="M348.26 325.92L351.19 324.87C351.92 326.17 352.13 327.41 351.84 328.61C351.54 329.81 351.01 330.83 350.23 331.67C349.45 332.52 348.48 333.14 347.31 333.53C346.14 333.92 344.88 333.81 343.53 333.19L344.34 330.18C344.93 330.54 345.58 330.68 346.28 330.59C346.98 330.5 347.57 330.19 348.06 329.67C348.51 329.18 348.78 328.59 348.85 327.91C348.93 327.23 348.73 326.57 348.27 325.92H348.26ZM347.15 339.25L350 336.15L357.44 343L354.68 331.07L357.53 327.97L369.59 339.08L366.74 342.18L359.3 335.33L362.06 347.26L359.21 350.36L347.15 339.25Z" fill="#2C4476"/>
<path d="M371.36 308.63L377.41 297.78L388.29 303.85L389.37 301.92L396.98 306.16L395.13 309.47L390.96 307.15L385.95 316.13L390.12 318.45L388.27 321.77L380.66 317.53C381.17 316.47 380.99 315.36 380.13 314.2C379.51 313.4 378.38 312.55 376.75 311.64L371.36 308.64V308.63ZM386.24 307.53L378.8 303.38L376.65 307.24L379.83 309.01C381.77 310.09 382.92 311.37 383.29 312.84L386.25 307.54L386.24 307.53Z" fill="#2C4476"/>
<path d="M387.38 278.92L385.38 278.21L386.8 274.25L402.24 279.77L400.82 283.73L398.82 283.02C400.11 284.68 400.42 286.41 399.77 288.23C399.01 290.35 397.6 291.8 395.53 292.56C393.46 293.32 391.27 293.29 388.97 292.47C386.64 291.64 384.92 290.29 383.82 288.43C382.72 286.57 382.53 284.61 383.27 282.55C384 280.51 385.37 279.31 387.38 278.93V278.92ZM389.73 280.57C388.63 281.01 387.89 281.79 387.48 282.92C387.08 284.05 387.16 285.13 387.73 286.16C388.3 287.2 389.2 287.93 390.44 288.38C391.68 288.82 392.85 288.83 393.96 288.39C395.07 287.96 395.82 287.17 396.22 286.05C396.62 284.93 396.54 283.84 395.95 282.8C395.37 281.76 394.46 281.02 393.22 280.58C391.98 280.14 390.82 280.14 389.72 280.58L389.73 280.57Z" fill="#2C4476"/>
<path d="M403.91 263.51L414.56 265.28L413.87 269.43L389.14 265.31L389.83 261.16L391.92 261.51C390.36 260.11 389.76 258.36 390.11 256.28C390.45 254.24 391.45 252.68 393.11 251.6C394.97 250.39 397.24 250.01 399.9 250.46C402.64 250.92 404.69 252.05 406.05 253.86C407.22 255.45 407.64 257.24 407.31 259.21C406.98 261.18 405.85 262.62 403.91 263.51ZM393.95 258.07C393.77 259.14 393.99 260.09 394.59 260.94C395.31 262.02 396.39 262.67 397.83 262.91C399.3 263.16 400.55 262.9 401.57 262.13C402.42 261.5 402.93 260.66 403.11 259.59C403.29 258.48 403.07 257.48 402.42 256.61C401.69 255.6 400.62 254.98 399.2 254.74C397.81 254.51 396.6 254.74 395.59 255.43C394.69 256.07 394.15 256.95 393.96 258.06L393.95 258.07Z" fill="#2C4476"/>
<path d="M39.3801 204.87H29.5601V235.82H39.3801V204.87Z" fill="#E30613"/>
<path d="M49.9404 225.25V215.43H18.9904V225.25H49.9404Z" fill="#E30613"/>
<path d="M407.94 201.51H398.12V232.46H407.94V201.51Z" fill="#E30613"/>
<path d="M418.51 221.89V212.07H387.56V221.89H418.51Z" fill="#E30613"/>
</g>
<defs>
<clipPath id="clip0_745_4962">
<rect width="399.51" height="415.71" fill="white" transform="translate(19)"/>
</clipPath>
</defs>
</svg>
