<svg width="15" height="11" viewBox="0 0 15 11" fill="none" xmlns="http://www.w3.org/2000/svg">
<path d="M6.99999 8.50002C7.78888 8.50002 8.45832 8.22502 9.00832 7.67502C9.55832 7.12502 9.83332 6.45558 9.83332 5.66669C9.83332 4.8778 9.55832 4.20835 9.00832 3.65835C8.45832 3.10835 7.78888 2.83335 6.99999 2.83335C6.2111 2.83335 5.54166 3.10835 4.99166 3.65835C4.44166 4.20835 4.16666 4.8778 4.16666 5.66669C4.16666 6.45558 4.44166 7.12502 4.99166 7.67502C5.54166 8.22502 6.2111 8.50002 6.99999 8.50002ZM6.99999 7.53335C6.47777 7.53335 6.0361 7.3528 5.67499 6.99169C5.31388 6.63058 5.13332 6.18891 5.13332 5.66669C5.13332 5.14446 5.31388 4.7028 5.67499 4.34169C6.0361 3.98058 6.47777 3.80002 6.99999 3.80002C7.52221 3.80002 7.96388 3.98058 8.32499 4.34169C8.6861 4.7028 8.86666 5.14446 8.86666 5.66669C8.86666 6.18891 8.6861 6.63058 8.32499 6.99169C7.96388 7.3528 7.52221 7.53335 6.99999 7.53335ZM6.99999 10.6667C5.37777 10.6667 3.9111 10.2056 2.59999 9.28335C1.28888 8.36113 0.311101 7.15558 -0.333344 5.66669C0.311101 4.1778 1.28888 2.97224 2.59999 2.05002C3.9111 1.1278 5.37777 0.666687 6.99999 0.666687C8.62221 0.666687 10.0889 1.1278 11.4 2.05002C12.7111 2.97224 13.6889 4.1778 14.3333 5.66669C13.6889 7.15558 12.7111 8.36113 11.4 9.28335C10.0889 10.2056 8.62221 10.6667 6.99999 10.6667ZM6.99999 9.66669C8.34443 9.66669 9.58055 9.3028 10.7083 8.57502C11.8361 7.84724 12.6944 6.8778 13.2833 5.66669C12.6944 4.45558 11.8361 3.48613 10.7083 2.75835C9.58055 2.03058 8.34443 1.66669 6.99999 1.66669C5.65555 1.66669 4.41943 2.03058 3.29166 2.75835C2.16388 3.48613 1.29999 4.45558 0.69999 5.66669C1.29999 6.8778 2.16388 7.84724 3.29166 8.57502C4.41943 9.3028 5.65555 9.66669 6.99999 9.66669Z" fill="black"/>
</svg>
