<svg width="28" height="28" viewBox="0 0 28 28" fill="none" xmlns="http://www.w3.org/2000/svg">
<path d="M8.09962 17.7357C7.86808 17.7357 7.68066 17.9231 7.68066 18.1546V22.0573C7.68066 22.2738 7.84573 22.4548 8.06135 22.4746C8.07588 22.476 8.16944 22.4838 8.3158 22.4838C8.77022 22.4838 9.73074 22.4067 10.3829 21.8112C10.8139 21.418 11.0323 20.8828 11.0323 20.2209C11.0323 18.1666 9.43747 17.7357 8.09962 17.7357ZM9.82012 21.1904C9.45367 21.5266 8.89088 21.6185 8.51857 21.6398V18.5867C9.40256 18.6493 10.1944 18.9652 10.1944 20.2206C10.1944 20.6421 10.072 20.9594 9.82012 21.1904Z" fill="black"/>
<path d="M13.8252 17.7357C12.8072 17.7357 12.0098 18.7783 12.0098 20.1097C12.0098 21.4412 12.8072 22.4838 13.8252 22.4838C14.8433 22.4838 15.6407 21.4412 15.6407 20.1097C15.6407 18.7783 14.8433 17.7357 13.8252 17.7357ZM13.8252 21.6459C13.2954 21.6459 12.8477 20.9423 12.8477 20.1097C12.8477 19.2771 13.2954 18.5736 13.8252 18.5736C14.3551 18.5736 14.8028 19.2771 14.8028 20.1097C14.8028 20.9423 14.3551 21.6459 13.8252 21.6459Z" fill="black"/>
<path d="M19.7502 20.9194C19.5463 20.8088 19.2921 20.8851 19.1824 21.0887C18.9908 21.4428 18.7184 21.6459 18.4352 21.6459C17.9046 21.6459 17.4563 20.9423 17.4563 20.1097C17.4563 19.2771 17.9046 18.5736 18.4352 18.5736C18.7514 18.5736 18.9768 18.8227 19.0829 18.971C19.2176 19.1593 19.479 19.2026 19.6675 19.0682C19.8558 18.9336 19.8993 18.6719 19.7647 18.4836C19.4248 18.0083 18.9402 17.7357 18.4355 17.7357C17.4166 17.7357 16.6187 18.7783 16.6187 20.1097C16.6187 21.4412 17.4166 22.4838 18.4355 22.4838C19.0276 22.4838 19.5823 22.1112 19.9197 21.4873C20.0295 21.2834 19.9538 21.0292 19.7502 20.9194Z" fill="black"/>
<path d="M22.2231 8.35784L17.1231 3.19662C17.0443 3.11702 16.937 3.07205 16.825 3.07205H5.72559C5.49405 3.07205 5.30664 3.25946 5.30664 3.491V24.4386C5.30664 24.6702 5.49405 24.8576 5.72559 24.8576H21.9251C22.1566 24.8576 22.344 24.6702 22.344 24.4386V8.65222C22.344 8.54218 22.3005 8.43632 22.2231 8.35784ZM17.3166 4.58475L20.928 8.23941H17.3166V4.58475ZM6.14455 24.02V3.91024H16.4787V8.65837C16.4787 8.88991 16.6661 9.07732 16.8977 9.07732H21.5061V24.02H6.14455Z" fill="black"/>
</svg>
